<svg width="32" height="32" xmlns="http://www.w3.org/2000/svg">
  <path stroke=" #ffffff" stroke-width="0" fill="#faf0ca" id="svg_1" d="m28.971182,21.764967c0.795982,0 1.441229,0.645264 1.441229,1.441246l0,0l0,4.323725c0,2.387917 -1.935787,4.323719 -4.323717,4.323719l0,0l-20.17738,0c-2.38793,0 -4.323725,-1.935802 -4.323725,-4.323719l0,0l0,-4.323725c0,-0.795982 0.645258,-1.441246 1.441239,-1.441246c0.79598,0 1.441238,0.645264 1.441238,1.441246l0,0l0,4.323725c0,0.795969 0.645267,1.441235 1.441248,1.441235l0,0l20.17738,0c0.795973,0 1.441244,-0.645266 1.441244,-1.441235l0,0l0,-4.323725c0,-0.795982 0.645262,-1.441246 1.441244,-1.441246zm-12.971182,-21.618625l0.13814,0.006601c0.06002,0.005742 0.119755,0.015239 0.178804,0.028492c0.076334,0.016998 0.15037,0.040183 0.221577,0.068883c0.015699,0.006324 0.03138,0.012957 0.046959,0.019884c0.024632,0.010999 0.048616,0.022493 0.072224,0.03462c0.015278,0.007739 0.030575,0.015941 0.045757,0.02444c0.028236,0.015951 0.055779,0.032623 0.082697,0.050175c0.00948,0.006039 0.018816,0.012284 0.028095,0.018649c0.02713,0.018757 0.053535,0.038236 0.079241,0.058565c0.043337,0.034214 0.085371,0.071581 0.125624,0.111823l-0.085735,-0.079092c0.024006,0.020418 0.047338,0.041617 0.069944,0.063547l0.015791,0.015545l5.764963,5.764963c0.562845,0.562844 0.562845,1.475383 0,2.038228c-0.562841,0.562836 -1.475382,0.562836 -2.038223,0l0,0l-3.305269,-3.305667l0.000652,16.698968c0,0.749151 -0.571581,1.364801 -1.302435,1.434643l-0.138805,0.006603c-0.795982,0 -1.441237,-0.645266 -1.441237,-1.441246l0,0l0,-16.698968l-3.30462,3.305667c-0.527661,0.527663 -1.362678,0.560642 -1.928759,0.098937l-0.109461,-0.098937c-0.562835,-0.562844 -0.562835,-1.475384 0,-2.038228l0,0l5.764961,-5.764963c0.003523,-0.003518 0.00705,-0.007016 0.010598,-0.010484c0.024737,-0.024243 0.0505,-0.047735 0.077106,-0.070277c0.012769,-0.0109 0.025387,-0.021248 0.038145,-0.031338c0.022486,-0.017691 0.04576,-0.034995 0.069557,-0.051598c0.014219,-0.010071 0.028166,-0.019429 0.042227,-0.028522c0.026894,-0.017245 0.054859,-0.034036 0.083441,-0.049888c0.011347,-0.006413 0.022951,-0.01264 0.034622,-0.018688c0.030447,-0.015694 0.060923,-0.030182 0.091967,-0.043603c0.010933,-0.004735 0.02194,-0.00932 0.032998,-0.013768c0.068212,-0.027504 0.139014,-0.049927 0.211938,-0.066817c0.047435,-0.010841 0.095016,-0.019351 0.14283,-0.025457c0.059983,-0.007739 0.121378,-0.011692 0.183687,-0.011692l0,0z"/>
</svg>
